<svg xmlns="http://www.w3.org/2000/svg" version="1.1" xmlns:xlink="http://www.w3.org/1999/xlink" xmlns:svgjs="http://svgjs.dev/svgjs" width="1000" height="750" viewBox="0 0 1000 750"><rect width="1000" height="750" fill="#ffffff"></rect><g transform="matrix(0.584,0,0,0.584,207.70800000000003,82.70800993198515)"><svg viewBox="0 0 280 280" data-background-color="#ffffff" preserveAspectRatio="xMidYMid meet" height="1000" width="1000" xmlns="http://www.w3.org/2000/svg" xmlns:xlink="http://www.w3.org/1999/xlink"><g id="tight-bounds" transform="matrix(1,0,0,1,0.13999999999998636,0.14000476191066014)"><svg viewBox="0 0 279.72 279.72" height="279.72" width="279.72"><g><svg viewBox="0 0 279.72 279.72" height="279.72" width="279.72"><g><svg viewBox="0 0 279.72 279.72" height="279.72" width="279.72"><g id="textblocktransform"><svg viewBox="0 0 279.72 279.72" height="279.72" width="279.72" id="textblock"><g><svg viewBox="0 0 279.72 279.72" height="279.72" width="279.72"><g transform="matrix(1,0,0,1,57.446704652707865,57.446704652707865)"><svg viewBox="0 0 164.8265906945843 164.8265906945843" height="164.8265906945843" width="164.8265906945843"><g><circle r="82" cx="82.41329534729215" cy="82.41329534729215" fill="#f9c9cb" data-fill-palette-color="accent"></circle><svg xmlns="http://www.w3.org/2000/svg" xmlns:xlink="http://www.w3.org/1999/xlink" version="1.1" x="24.723988604187646" y="24.72398860418764" viewBox="19.718000411987305 5 60.560997009277344 90.00000762939453" enable-background="new 0 0 100 100" xml:space="preserve" height="115.378613486209" width="115.378613486209" class="icon-o-0" data-fill-palette-color="quaternary" id="o-0"><g fill="#ffffff" data-fill-palette-color="quaternary"><path d="M46.008 15.274c-0.064 0.011-0.128 0.016-0.191 0.016-0.521 0-0.984-0.373-1.077-0.904l-1.182-6.702c-4.64 2.353-7.823 7.166-7.823 12.727h-0.57c-1.156 0-2.092 0.936-2.092 2.092s0.937 2.093 2.092 2.093h29.669c1.156 0 2.093-0.937 2.093-2.093s-0.937-2.092-2.093-2.092h-0.569c0-5.561-3.185-10.374-7.824-12.728l-1.183 6.703c-0.093 0.531-0.555 0.904-1.076 0.904-0.063 0-0.127-0.005-0.19-0.016-0.596-0.107-0.992-0.673-0.887-1.268l1.35-7.656C53.947 5.541 53.05 5 52.022 5h-4.049c-1.025 0-1.922 0.541-2.429 1.35l1.35 7.656C46.999 14.602 46.603 15.167 46.008 15.274z" fill="#ffffff" data-fill-palette-color="quaternary"></path><g fill="#ffffff" data-fill-palette-color="quaternary"><path d="M75.58 56.229c0.338 0 0.667 0.037 0.984 0.105-1.146-3.871-2.646-6.343-4.134-7.933-2.479-2.643-4.932-2.851-5.686-3.024-0.139-0.033-0.277-0.064-0.424-0.091-0.459-0.422-0.82-1.016-1.104-1.725-0.706-1.779-0.917-4.304-0.894-6.813 0.043-4.517 0.833-8.994 0.833-8.994v0c0-0.197-0.009-0.377-0.012-0.569-0.104 0.007-0.207 0.016-0.313 0.016h-2.887c0.215 0.363 0.327 0.966 0.308 1.681-0.009 0.313-0.043 0.647-0.105 0.992-0.188 1.045-0.581 1.917-1.012 2.35-0.211 0.213-0.438 0.319-0.645 0.282-0.104-0.019-0.194-0.07-0.28-0.146-1.019 3.172-2.965 6.334-5.422 8.243-1.447 1.124-3.073 1.812-4.791 1.812-1.718 0-3.343-0.688-4.791-1.812-2.457-1.909-4.404-5.071-5.422-8.243-0.085 0.076-0.175 0.127-0.28 0.146-0.207 0.037-0.434-0.069-0.645-0.282-0.43-0.433-0.824-1.305-1.012-2.35-0.062-0.345-0.096-0.679-0.105-0.992-0.02-0.715 0.092-1.317 0.308-1.681h-2.888c-0.104 0-0.208-0.009-0.312-0.016-0.002 0.192-0.012 0.373-0.012 0.569v0c0 0 0.791 4.477 0.833 8.994 0.024 2.51-0.187 5.034-0.893 6.813-0.283 0.708-0.645 1.303-1.103 1.725-0.146 0.027-0.286 0.058-0.425 0.091-0.753 0.173-3.206 0.381-5.685 3.024-1.489 1.589-2.987 4.062-4.134 7.933 0.318-0.068 0.646-0.105 0.984-0.105H75.58zM40.039 44.57c0.065-0.023 0.216-0.076 0.416-0.168 0.081-0.034 0.172-0.08 0.264-0.13 0.8-0.418 1.974-1.293 1.974-2.833h0.001c1.26 1.248 2.665 2.24 4.163 2.833 1.007 0.401 2.059 0.621 3.138 0.621 0.001 0 0.002 0 0.002 0s0.004 0 0.005 0c1.079 0 2.131-0.22 3.138-0.621 1.498-0.593 2.903-1.585 4.164-2.833h0.001c0 1.54 1.174 2.415 1.975 2.833 0.091 0.05 0.182 0.096 0.264 0.13 0.199 0.092 0.351 0.145 0.415 0.168 0 0 0 0 0 0.002-0.047 0.395-0.223 0.774-0.501 1.135-1.322 1.69-5.031 4.125-9.403 4.125-0.019 0-0.037-0.002-0.056-0.002s-0.037 0.002-0.056 0.002c-4.371 0-8.081-2.436-9.403-4.125-0.279-0.361-0.454-0.74-0.501-1.135C40.039 44.57 40.039 44.57 40.039 44.57z" fill="#ffffff" data-fill-palette-color="quaternary"></path><path d="M73.192 93.067H26.805c-0.533 0-0.966 0.433-0.966 0.966 0 0.534 0.433 0.967 0.966 0.967h46.387c0.533 0 0.966-0.433 0.966-0.967C74.158 93.5 73.726 93.067 73.192 93.067z" fill="#ffffff" data-fill-palette-color="quaternary"></path><path d="M76.564 58.267c-0.317-0.068-0.646-0.105-0.984-0.105H24.417c-0.338 0-0.666 0.037-0.984 0.105-2.12 0.454-3.715 2.341-3.715 4.594v0.11l0.019 0.108 4.246 24.63c0.063 2.536 2.147 4.58 4.698 4.58h42.636c2.551 0 4.634-2.044 4.697-4.58l4.246-24.63 0.019-0.108v-0.11C80.279 60.607 78.685 58.721 76.564 58.267zM50 77.247c-1.117 0-2.024-0.903-2.024-2.023 0-1.116 0.907-2.02 2.024-2.02 1.117 0 2.022 0.903 2.022 2.02C52.021 76.344 51.116 77.247 50 77.247z" fill="#ffffff" data-fill-palette-color="quaternary"></path></g></g></svg></g></svg></g><path d="M21.006 196.332v0c-0.622 0.212-1.211 0.324-1.766 0.334-0.555 0.01-1.069-0.047-1.541-0.172-0.475-0.132-0.904-0.329-1.287-0.592-0.388-0.254-0.733-0.541-1.035-0.861-0.3-0.313-0.554-0.649-0.763-1.007-0.215-0.356-0.381-0.708-0.499-1.054v0l-4.178-12.237 3.175-1.084 4.178 12.237c0.208 0.609 0.55 1.023 1.025 1.24 0.469 0.22 1.005 0.226 1.607 0.021v0c0.295-0.101 0.549-0.238 0.762-0.411 0.213-0.173 0.381-0.374 0.504-0.601 0.123-0.228 0.19-0.48 0.203-0.757 0.015-0.27-0.028-0.553-0.128-0.848v0l-2.489-7.292c-0.175-0.513-0.272-1.1-0.29-1.76-0.022-0.651 0.085-1.304 0.32-1.957 0.231-0.645 0.619-1.25 1.164-1.815 0.547-0.559 1.295-1.001 2.244-1.325v0c0.956-0.326 1.817-0.434 2.585-0.324 0.77 0.117 1.447 0.358 2.031 0.725 0.586 0.373 1.072 0.823 1.46 1.349 0.383 0.535 0.662 1.059 0.837 1.573v0l3.685 10.794-3.174 1.084-3.686-10.794c-0.206-0.603-0.55-1.012-1.031-1.228-0.479-0.209-1.021-0.21-1.623-0.004v0c-0.609 0.208-1.033 0.539-1.272 0.993-0.237 0.46-0.252 0.992-0.047 1.595v0l2.49 7.292 0.01 0.029c0.103 0.344 0.179 0.723 0.226 1.137 0.046 0.407 0.044 0.83-0.006 1.269-0.05 0.44-0.154 0.88-0.312 1.321-0.153 0.432-0.378 0.845-0.673 1.239-0.289 0.392-0.657 0.751-1.104 1.075-0.439 0.329-0.973 0.601-1.602 0.816zM36.583 213.42l-3.104 1.677c-0.99 0.535-1.994 0.858-3.012 0.969-1.018 0.111-1.993 0.025-2.924-0.257-0.928-0.277-1.785-0.738-2.573-1.383-0.782-0.648-1.437-1.461-1.965-2.439v0l-2.156-3.988c-0.528-0.978-0.851-1.974-0.968-2.99-0.108-1.012-0.025-1.985 0.248-2.919 0.277-0.928 0.739-1.79 1.387-2.587 0.648-0.797 1.467-1.463 2.457-1.997v0l3.103-1.677c0.984-0.532 1.986-0.85 3.008-0.956 1.028-0.108 2.002-0.023 2.924 0.258 0.931 0.283 1.79 0.747 2.578 1.391 0.791 0.651 1.451 1.465 1.979 2.444v0l2.155 3.988c0.528 0.978 0.847 1.973 0.955 2.986 0.108 1.012 0.024 1.982-0.253 2.91-0.268 0.93-0.73 1.793-1.387 2.586-0.651 0.791-1.468 1.452-2.452 1.984zM31.884 212.146l3.104-1.677c0.584-0.316 1.062-0.693 1.433-1.133 0.377-0.443 0.641-0.924 0.791-1.444 0.153-0.514 0.198-1.059 0.134-1.633-0.073-0.577-0.262-1.149-0.568-1.715v0l-2.156-3.988c-0.313-0.578-0.689-1.053-1.128-1.425-0.445-0.368-0.927-0.632-1.444-0.791-0.521-0.165-1.07-0.212-1.646-0.138-0.571 0.07-1.149 0.262-1.733 0.578v0l-3.104 1.677c-0.584 0.316-1.062 0.693-1.433 1.133-0.371 0.439-0.633 0.924-0.786 1.453-0.15 0.52-0.19 1.066-0.121 1.637 0.064 0.574 0.252 1.15 0.565 1.728v0l2.146 3.971c0.309 0.572 0.687 1.043 1.132 1.411 0.443 0.377 0.923 0.645 1.44 0.805 0.524 0.156 1.071 0.199 1.641 0.129 0.571-0.07 1.149-0.262 1.733-0.578zM47.584 227.581l-2.674 2.077-6.503-8.375 2.673-2.076zM54.466 224.129l-2.65 2.057-8.243-10.614-11.955 9.284-2.051-2.641 13.272-10.307c0.182-0.141 0.381-0.244 0.596-0.309 0.215-0.055 0.429-0.072 0.644-0.049 0.215 0.022 0.418 0.091 0.612 0.207 0.194 0.107 0.366 0.256 0.516 0.449v0zM67.483 236.005l-2.293 2.448-5.394-5.052-10.347 11.048-2.449-2.293 10.348-11.048-5.402-5.059 2.293-2.448zM84.869 247.129l2.854 1.859-12.049 12.837c-0.245 0.253-0.537 0.415-0.874 0.486-0.336 0.081-0.667 0.055-0.994-0.077v0c-0.329-0.141-0.587-0.354-0.774-0.637-0.193-0.287-0.282-0.604-0.266-0.95v0l0.358-11.801-10.657 5.093c-0.262 0.129-0.537 0.184-0.824 0.167-0.29-0.027-0.557-0.12-0.801-0.279v0c-0.335-0.218-0.563-0.52-0.684-0.906-0.121-0.386-0.097-0.771 0.072-1.154v0l6.845-16.227 2.853 1.858-4.806 11.44 9.029-4.177c0.262-0.129 0.535-0.181 0.819-0.158 0.293 0.021 0.562 0.111 0.806 0.271v0c0.244 0.159 0.433 0.367 0.565 0.622 0.13 0.247 0.198 0.521 0.204 0.824v0l-0.196 9.93zM104.409 257.55l-6.487 15.502-3.086-1.291 1.755-4.192-10.879-4.553-1.754 4.192-3.094-1.295 3.571-8.533c0.521-1.244 1.215-2.298 2.083-3.162 0.865-0.872 1.835-1.524 2.912-1.955 1.079-0.437 2.225-0.648 3.439-0.633 1.213 0.015 2.435 0.281 3.667 0.796v0l6.967 2.916c0.213 0.089 0.399 0.215 0.559 0.377 0.156 0.154 0.276 0.332 0.36 0.536 0.084 0.204 0.127 0.417 0.129 0.639-0.006 0.225-0.054 0.444-0.142 0.656zM87.529 258.675l-0.525 1.256 10.878 4.552 2.798-6.686-5.439-2.276c-0.094-0.039-0.299-0.11-0.616-0.214-0.319-0.097-0.701-0.176-1.146-0.237-0.447-0.055-0.941-0.06-1.482-0.014-0.541 0.046-1.082 0.19-1.625 0.433-0.545 0.249-1.063 0.628-1.555 1.135-0.498 0.504-0.927 1.188-1.288 2.051zM124.061 264.291l-0.468 2.083c-0.168 0.747-0.41 1.394-0.727 1.941-0.311 0.548-0.675 1.012-1.094 1.39-0.418 0.378-0.868 0.68-1.349 0.906-0.481 0.225-0.97 0.39-1.466 0.494-0.496 0.104-0.982 0.151-1.459 0.141-0.477-0.01-0.917-0.06-1.32-0.15v0l5.509 7.435-5.059-1.135-5.489-7.431-2.361-0.53 0.735-3.274 7.399 1.661c0.417 0.059 0.814 0.058 1.189-0.004 0.368-0.063 0.704-0.182 1.007-0.357 0.298-0.183 0.55-0.425 0.757-0.726 0.213-0.299 0.368-0.664 0.465-1.094v0l0.463-2.063c0.042-0.185 0.05-0.329 0.024-0.432-0.024-0.11-0.067-0.196-0.13-0.259-0.062-0.063-0.132-0.106-0.21-0.13-0.078-0.024-0.15-0.044-0.216-0.059v0l-10.802-2.425-3.315 14.769-3.263-0.732 3.68-16.396c0.05-0.225 0.138-0.431 0.264-0.618 0.131-0.179 0.286-0.328 0.465-0.448 0.18-0.119 0.381-0.196 0.604-0.229 0.218-0.041 0.446-0.035 0.683 0.018v0l12.419 2.788c0.727 0.163 1.313 0.434 1.756 0.811 0.443 0.377 0.779 0.8 1.007 1.268 0.222 0.467 0.35 0.947 0.385 1.44 0.035 0.494 0.007 0.943-0.083 1.347zM141.195 268.711l-0.203 3.379-10.563-0.633 0.202-3.379zM142.253 276.371l-0.201 3.349-12.075-0.723c-0.467-0.028-0.969-0.14-1.508-0.335-0.538-0.195-1.03-0.493-1.474-0.893-0.444-0.407-0.807-0.917-1.089-1.532-0.276-0.614-0.387-1.354-0.336-2.219v0l0.723-12.076c0.014-0.23 0.071-0.447 0.172-0.652 0.093-0.198 0.222-0.37 0.387-0.516 0.158-0.147 0.341-0.255 0.549-0.324 0.215-0.075 0.441-0.106 0.678-0.092v0l15.079 0.904-0.2 3.348-13.416-0.803-0.623 10.411c-0.026 0.44 0.069 0.781 0.285 1.025 0.216 0.244 0.548 0.379 0.994 0.406v0zM168.593 265.346l0.549 3.341-10.442 1.717-0.55-3.34zM171.318 272.584l0.544 3.31-11.937 1.963c-0.461 0.076-0.976 0.078-1.544 0.007-0.568-0.071-1.113-0.253-1.635-0.545-0.523-0.299-0.99-0.716-1.401-1.253-0.404-0.538-0.677-1.235-0.818-2.091v0l-1.963-11.937c-0.037-0.227-0.03-0.452 0.023-0.674 0.047-0.214 0.135-0.41 0.264-0.589 0.122-0.178 0.276-0.324 0.464-0.437 0.193-0.121 0.407-0.201 0.64-0.239v0l14.906-2.451 0.545 3.31-13.261 2.181 1.692 10.291c0.071 0.435 0.24 0.747 0.505 0.937 0.265 0.19 0.618 0.249 1.059 0.176v0zM187.602 251.119l5.457 16.162c0.078 0.231 0.108 0.457 0.089 0.678-0.016 0.227-0.074 0.436-0.174 0.628-0.094 0.189-0.223 0.358-0.387 0.506-0.173 0.144-0.369 0.253-0.587 0.327v0c-0.193 0.065-0.4 0.096-0.624 0.092-0.223-0.003-0.443-0.062-0.659-0.174v0l-15.697-8.198 4.165 12.338-3.168 1.07-5.457-16.162c-0.111-0.327-0.12-0.653-0.03-0.977 0.097-0.326 0.264-0.604 0.502-0.835v0c0.261-0.224 0.559-0.357 0.895-0.398 0.341-0.051 0.663 0.005 0.969 0.166v0l15.703 8.185-4.166-12.338zM209.623 249.402l3.63 6.635c0.114 0.208 0.183 0.425 0.206 0.653 0.02 0.221 0.001 0.432-0.058 0.634-0.056 0.208-0.157 0.399-0.302 0.571-0.136 0.175-0.311 0.321-0.525 0.438v0l-10.613 5.806c-0.268 0.146-0.577 0.273-0.928 0.38-0.345 0.104-0.708 0.175-1.088 0.213-0.378 0.029-0.765 0.013-1.162-0.048-0.4-0.067-0.79-0.194-1.17-0.38-0.38-0.186-0.746-0.446-1.098-0.778-0.352-0.333-0.666-0.752-0.942-1.257v0l-4.358-7.964c-0.15-0.273-0.276-0.583-0.38-0.928-0.107-0.351-0.175-0.715-0.204-1.093-0.032-0.384-0.018-0.774 0.043-1.171 0.067-0.4 0.197-0.791 0.389-1.174 0.186-0.38 0.444-0.741 0.774-1.084 0.327-0.349 0.743-0.661 1.249-0.938v0l11.959-6.543 1.61 2.943-11.959 6.543c-0.381 0.208-0.617 0.469-0.708 0.781-0.098 0.316-0.037 0.673 0.18 1.072v0l4.348 7.946c0.205 0.375 0.468 0.609 0.79 0.703 0.322 0.094 0.67 0.039 1.045-0.166v0l9.159-5.011-2.015-3.683-7.831 4.284-1.624-2.97 9.284-5.079c0.214-0.117 0.433-0.183 0.656-0.197 0.227-0.024 0.443-0.003 0.649 0.062 0.206 0.065 0.394 0.163 0.566 0.293 0.175 0.136 0.318 0.305 0.428 0.507zM209.667 237.944l10.61 15.145-2.748 1.924-10.609-15.145zM225.422 223.973l11.341 12.742c0.162 0.182 0.278 0.379 0.348 0.589 0.074 0.215 0.102 0.431 0.084 0.645-0.012 0.21-0.065 0.416-0.158 0.618-0.103 0.2-0.24 0.377-0.412 0.53v0c-0.152 0.135-0.331 0.245-0.538 0.329-0.206 0.084-0.432 0.117-0.675 0.097v0l-17.653-1.408 8.658 9.727-2.498 2.224-11.341-12.742c-0.23-0.258-0.366-0.554-0.41-0.887-0.038-0.338 0.007-0.66 0.136-0.965v0c0.152-0.308 0.375-0.547 0.668-0.717 0.294-0.18 0.612-0.255 0.956-0.225v0l17.654 1.394-8.658-9.728zM241.908 215.18l2.643 2.115-6.613 8.262-2.643-2.116zM248.775 218.736l2.619 2.097-7.56 9.444c-0.292 0.365-0.673 0.711-1.143 1.038-0.47 0.327-0.997 0.556-1.58 0.688-0.589 0.128-1.215 0.13-1.88 0.006-0.66-0.129-1.329-0.465-2.006-1.007v0l-9.444-7.56c-0.18-0.144-0.324-0.316-0.434-0.516-0.108-0.191-0.174-0.395-0.198-0.614-0.029-0.214-0.011-0.425 0.053-0.635 0.063-0.219 0.168-0.421 0.316-0.607v0l9.44-11.793 2.619 2.096-8.398 10.492 8.142 6.518c0.344 0.275 0.678 0.395 1.002 0.359 0.324-0.036 0.626-0.228 0.905-0.578v0zM251.616 198.479l2.939 1.68-5.252 9.187-2.939-1.679zM258.951 200.927l2.913 1.665-6.003 10.503c-0.232 0.406-0.555 0.807-0.969 1.202-0.414 0.396-0.898 0.704-1.454 0.926-0.562 0.218-1.18 0.317-1.856 0.297-0.672-0.025-1.385-0.253-2.138-0.683v0l-10.503-6.004c-0.2-0.114-0.369-0.262-0.508-0.442-0.136-0.172-0.233-0.364-0.291-0.576-0.061-0.207-0.077-0.419-0.047-0.636 0.028-0.226 0.101-0.442 0.218-0.648v0l7.497-13.115 2.912 1.665-6.669 11.667 9.055 5.176c0.382 0.219 0.731 0.285 1.046 0.199 0.314-0.086 0.583-0.323 0.804-0.711v0zM256.318 176.177l2.003 0.74c0.718 0.265 1.328 0.591 1.827 0.978 0.502 0.381 0.913 0.803 1.233 1.268 0.32 0.465 0.559 0.951 0.719 1.458 0.16 0.507 0.258 1.013 0.296 1.518 0.037 0.505 0.02 0.993-0.054 1.465-0.073 0.472-0.181 0.901-0.324 1.289v0l8.1-4.475-1.796 4.863-8.093 4.456-0.839 2.27-3.147-1.163 2.628-7.113c0.114-0.406 0.165-0.799 0.153-1.179-0.014-0.374-0.087-0.722-0.22-1.046-0.142-0.32-0.348-0.602-0.619-0.847-0.269-0.251-0.609-0.453-1.023-0.605v0l-1.984-0.732c-0.178-0.066-0.32-0.093-0.425-0.082-0.112 0.009-0.203 0.041-0.273 0.095-0.07 0.053-0.123 0.117-0.157 0.191-0.035 0.074-0.064 0.143-0.087 0.206v0l-3.836 10.385 14.2 5.244-1.159 3.138-15.763-5.822c-0.216-0.08-0.409-0.194-0.578-0.344-0.16-0.153-0.288-0.327-0.382-0.52-0.095-0.194-0.144-0.403-0.147-0.629-0.012-0.221 0.024-0.446 0.108-0.675v0l4.41-11.939c0.258-0.699 0.604-1.244 1.036-1.633 0.433-0.389 0.896-0.666 1.391-0.83 0.492-0.158 0.985-0.221 1.479-0.191 0.494 0.031 0.935 0.118 1.323 0.261z" fill="#124948" data-fill-palette-color="primary"></path><path d="M148.546 0V0C148.871 0.001 149.067 0.126 149.135 0.377V0.377L149.165 0.499C148.569 0.498 148.056 0.877 147.628 1.635 147.206 2.393 146.893 3.396 146.687 4.642 146.482 5.882 146.252 7.298 145.998 8.89 145.751 10.489 145.518 12.119 145.298 13.779 145.078 15.446 144.729 17.075 144.252 18.667 143.775 20.258 143.223 21.677 142.598 22.923 141.965 24.162 141.096 25.164 139.99 25.927 138.877 26.684 137.558 27.061 136.033 27.059 134.515 27.056 133.269 26.6 132.295 25.69 131.32 24.786 130.76 23.688 130.613 22.393V22.393C130.573 21.959 130.554 21.42 130.555 20.776 130.556 20.126 130.676 19.262 130.916 18.185 131.155 17.101 131.722 16.109 132.619 15.209 133.515 14.303 134.539 13.851 135.691 13.853V13.853C135.996 13.853 136.237 13.949 136.413 14.139 136.588 14.322 136.706 14.6 136.767 14.973V14.973C134.917 14.97 133.454 15.882 132.38 17.71V17.71C131.7 18.901 131.359 20.093 131.357 21.286V21.286C131.356 21.923 131.457 22.571 131.659 23.228V23.228C132.231 25.059 133.578 25.977 135.7 25.981V25.981C136.852 25.983 137.866 25.608 138.741 24.858 139.617 24.107 140.323 23.102 140.861 21.842 141.392 20.576 141.856 19.167 142.251 17.616 142.647 16.065 142.989 14.446 143.277 12.759 143.571 11.072 143.852 9.479 144.119 7.982V7.982C144.804 4.405 145.641 2.062 146.633 0.952V0.952C145.026 1.505 143.57 2.383 142.267 3.587 140.957 4.784 140.3 6.091 140.298 7.508V7.508C140.297 8.151 140.513 8.474 140.947 8.475V8.475C140.905 8.759 140.692 8.901 140.305 8.9 139.926 8.9 139.587 8.743 139.29 8.431 138.992 8.125 138.844 7.685 138.845 7.108V7.108C138.847 5.895 139.452 4.721 140.661 3.584 141.862 2.441 143.209 1.559 144.701 0.938 146.194 0.311 147.475-0.002 148.546 0Z" fill="#124948" data-fill-palette-color="primary"></path><path d="M9.204 143.9c0-1.488 1.206-2.693 2.693-2.694 1.488 0 2.693 1.206 2.694 2.694 0 1.488-1.206 2.693-2.694 2.693-1.488 0-2.693-1.206-2.693-2.693zM265.129 143.9c0-1.488 1.206-2.693 2.694-2.694 1.488 0 2.693 1.206 2.693 2.694 0 1.488-1.206 2.693-2.693 2.693-1.488 0-2.693-1.206-2.694-2.693z" fill="#124948" data-fill-palette-color="primary"></path></svg></g></svg></g></svg></g><g></g></svg></g><defs></defs></svg><rect width="279.72" height="279.72" fill="none" stroke="none" visibility="hidden"></rect></g></svg></g></svg>