<svg xmlns="http://www.w3.org/2000/svg" version="1.1" xmlns:xlink="http://www.w3.org/1999/xlink" xmlns:svgjs="http://svgjs.dev/svgjs" width="2000" height="2000" viewBox="0 0 2000 2000"><g transform="matrix(1,0,0,1,-0.28443113772425477,-0.28443113772459583)"><svg viewBox="0 0 334 334" data-background-color="#ffffff" preserveAspectRatio="xMidYMid meet" height="2000" width="2000" xmlns="http://www.w3.org/2000/svg" xmlns:xlink="http://www.w3.org/1999/xlink"><g id="tight-bounds" transform="matrix(1,0,0,1,0.04749999999998522,0.04750000000001364)"><svg viewBox="0 0 333.90454557049503 333.90454557049503" height="333.90454557049503" width="333.90454557049503"><g><svg></svg></g><g><svg viewBox="0 0 333.90454557049503 333.90454557049503" height="333.90454557049503" width="333.90454557049503"><g><path d="M0 166.952c0-92.205 74.747-166.952 166.952-166.952 92.205 0 166.952 74.747 166.953 166.952 0 92.205-74.747 166.952-166.953 166.953-92.205 0-166.952-74.747-166.952-166.953zM166.952 328.238c89.076 0 161.286-72.21 161.286-161.286 0-89.076-72.21-161.286-161.286-161.286-89.076 0-161.286 72.21-161.286 161.286 0 89.076 72.21 161.286 161.286 161.286z" data-fill-palette-color="tertiary" fill="#ef86c1" stroke="transparent"></path><ellipse rx="160.27418187383762" ry="160.27418187383762" cx="166.95227278524752" cy="166.95227278524752" fill="#ef86c1" stroke="transparent" stroke-width="0" fill-opacity="1" data-fill-palette-color="tertiary"></ellipse></g><g transform="matrix(1,0,0,1,69.92469868962525,71.17305217166896)"><svg viewBox="0 0 194.05514819124454 191.55844122715712" height="191.55844122715712" width="194.05514819124454"><g><svg viewBox="0 0 194.05514819124454 191.55844122715712" height="191.55844122715712" width="194.05514819124454"><g><svg viewBox="0 0 213.1584412271571 210.41595194188767" height="191.55844122715712" width="194.05514819124454"><g transform="matrix(1,0,0,1,0,100.67611545349)"><svg viewBox="0 0 213.1584412271571 109.73983648839766" height="109.73983648839766" width="213.1584412271571"><g id="textblocktransform"><svg viewBox="0 0 213.1584412271571 109.73983648839766" height="109.73983648839766" width="213.1584412271571" id="textblock"><g><svg viewBox="0 0 213.1584412271571 69.01598712719077" height="69.01598712719077" width="213.1584412271571"><g transform="matrix(1,0,0,1,0,0)"><svg width="213.1584412271571" viewBox="5.050000190734863 -35 109.9419174194336 35.599998474121094" height="69.01598712719077" data-palette-color="#ffffff"><path d="M24.95 0L5.05 0 5.05-3 13.25-3 13.25-32 5.05-32 5.05-35 24.95-35 24.95-32 16.75-32 16.75-3 24.95-3 24.95 0ZM38.2 0L34.7 0 34.7-24.8 37.55-24.8 38-21.05 38.2-21.05Q39.2-22.8 41.37-24.1 43.55-25.4 46.45-25.4L46.45-25.4Q51-25.4 53.25-22.73 55.5-20.05 55.5-15.15L55.5-15.15 55.5 0 52 0 52-14.75Q52-18.2 50.45-20.15 48.9-22.1 45.7-22.1L45.7-22.1Q42.6-22.1 40.4-19.98 38.2-17.85 38.2-13.85L38.2-13.85 38.2 0ZM75.25 0.6L75.25 0.6Q71.8 0.6 69.15-1.03 66.5-2.65 64.97-5.58 63.45-8.5 63.45-12.45L63.45-12.45Q63.45-16.4 64.95-19.3 66.45-22.2 69.12-23.8 71.8-25.4 75.34-25.4L75.34-25.4Q78.95-25.4 81.45-23.78 83.95-22.15 85.25-19.55 86.55-16.95 86.55-13.95L86.55-13.95Q86.55-13.45 86.55-12.9 86.55-12.35 86.5-11.65L86.5-11.65 66.84-11.65Q67-8.6 68.22-6.63 69.45-4.65 71.32-3.68 73.2-2.7 75.25-2.7L75.25-2.7Q78.3-2.7 79.97-3.98 81.65-5.25 82.45-7.45L82.45-7.45 85.84-7.45Q85.05-4.1 82.42-1.75 79.8 0.6 75.25 0.6ZM75.2-22.2L75.2-22.2Q72.05-22.2 69.67-20.25 67.3-18.3 66.9-14.85L66.9-14.85 83.15-14.85Q82.95-18.35 80.77-20.28 78.59-22.2 75.2-22.2ZM105.29 0.6L105.29 0.6Q100.64 0.6 97.69-1.6 94.74-3.8 94.39-7.7L94.39-7.7 98.04-7.7Q98.34-5.5 100.27-4.05 102.19-2.6 105.39-2.6L105.39-2.6Q108.49-2.6 109.94-3.98 111.39-5.35 111.39-7L111.39-7Q111.39-9.3 109.67-10.1 107.94-10.9 104.39-11.3L104.39-11.3Q100.34-11.75 97.79-13.43 95.24-15.1 95.24-18.45L95.24-18.45Q95.24-21.4 97.77-23.4 100.29-25.4 104.59-25.4L104.59-25.4Q108.89-25.4 111.37-23.48 113.84-21.55 114.14-17.85L114.14-17.85 110.59-17.85Q110.49-19.8 108.77-21 107.04-22.2 104.49-22.2L104.49-22.2Q101.79-22.2 100.32-21.23 98.84-20.25 98.84-18.5L98.84-18.5Q98.84-16.95 100.44-15.88 102.04-14.8 105.54-14.45L105.54-14.45Q108.14-14.2 110.27-13.53 112.39-12.85 113.69-11.35 114.99-9.85 114.99-7.15L114.99-7.15Q115.04-4.95 113.79-3.18 112.54-1.4 110.37-0.4 108.19 0.6 105.29 0.6Z" opacity="1" transform="matrix(1,0,0,1,0,0)" fill="#ffffff" class="undefined-text-0" data-fill-palette-color="quaternary" id="text-0"></path></svg></g></svg></g><g transform="matrix(1,0,0,1,0,85.30900530422946)"><svg viewBox="0 0 213.1584412271571 24.430831184168195" height="24.430831184168195" width="213.1584412271571"><g transform="matrix(1,0,0,1,0,0)"><svg width="213.1584412271571" viewBox="2.6600000858306885 -39.599998474121094 463.8999938964844 53.16999816894531" height="24.430831184168195" data-palette-color="#ffffff"><path d="M13.99-4.32L13.99-4.32Q15.31-4.32 16.47-4.64 17.63-4.96 18.49-5.58 19.36-6.2 19.86-7.12 20.36-8.03 20.36-9.23L20.36-9.23Q20.36-10.67 19.65-11.68 18.95-12.7 17.8-13.45 16.65-14.21 15.17-14.82 13.7-15.43 12.15-16.09 10.6-16.75 9.12-17.54 7.64-18.33 6.49-19.45 5.35-20.56 4.64-22.11 3.93-23.66 3.93-25.81L3.93-25.81Q3.93-28.22 4.86-30.15 5.79-32.08 7.47-33.44 9.16-34.79 11.52-35.52 13.89-36.25 16.8-36.25L16.8-36.25Q17.6-36.25 18.69-36.19 19.78-36.13 21.01-35.97 22.24-35.82 23.57-35.56 24.9-35.3 26.22-34.94L26.22-34.94 25.1-29.69 24.66-29.47Q23.44-30 22.25-30.38 21.07-30.76 20-31.01 18.92-31.25 17.98-31.35 17.04-31.45 16.33-31.45L16.33-31.45Q15.09-31.45 14.06-31.15 13.04-30.86 12.3-30.31 11.57-29.76 11.18-28.94 10.79-28.13 10.79-27.08L10.79-27.08Q10.79-25.63 11.5-24.62 12.21-23.61 13.37-22.83 14.53-22.05 16.02-21.41 17.5-20.78 19.04-20.12 20.58-19.46 22.07-18.68 23.56-17.9 24.72-16.8 25.88-15.7 26.59-14.21 27.29-12.72 27.29-10.64L27.29-10.64Q27.29-8.28 26.33-6.24 25.37-4.2 23.58-2.71 21.8-1.22 19.29-0.37 16.77 0.49 13.67 0.49L13.67 0.49Q12.45 0.49 11.1 0.34 9.74 0.2 8.31-0.1 6.88-0.39 5.44-0.83 4-1.27 2.66-1.86L2.66-1.86 3.76-7.1 4.27-7.35Q6.96-5.98 9.34-5.15 11.72-4.32 13.99-4.32ZM45.16 0.49L45.16 0.49Q41.97 0.49 39.56-0.54 37.16-1.56 35.53-3.31 33.91-5.05 33.09-7.36 32.27-9.67 32.27-12.23L32.27-12.23Q32.27-15.19 33.33-17.76 34.4-20.34 36.33-22.25 38.25-24.17 40.95-25.27 43.65-26.37 46.92-26.37L46.92-26.37Q50.1-26.37 52.51-25.34 54.93-24.32 56.56-22.57 58.2-20.83 59.03-18.51 59.86-16.19 59.86-13.6L59.86-13.6Q59.86-10.6 58.77-8.02 57.69-5.44 55.75-3.55 53.81-1.66 51.11-0.59 48.41 0.49 45.16 0.49ZM46.21-4.25L46.21-4.25Q47.56-4.25 48.69-4.81 49.83-5.37 50.66-6.45 51.49-7.52 51.94-9.06 52.39-10.6 52.39-12.55L52.39-12.55Q52.39-14.4 51.95-16.06 51.51-17.72 50.68-18.96 49.85-20.19 48.64-20.91 47.43-21.63 45.9-21.63L45.9-21.63Q44.5-21.63 43.37-21.04 42.23-20.46 41.43-19.36 40.62-18.26 40.17-16.71 39.72-15.16 39.72-13.26L39.72-13.26Q39.72-11.33 40.17-9.68 40.62-8.03 41.46-6.82 42.31-5.62 43.5-4.93 44.7-4.25 46.21-4.25ZM68.16 0L68.16-21.14 62.96-21.14 63.45-24.46 68.18-25.88 68.18-26.86Q68.18-29.49 68.98-31.81 69.77-34.13 71.3-35.86 72.82-37.6 75.07-38.6 77.31-39.6 80.22-39.6L80.22-39.6Q81.37-39.6 82.62-39.43 83.88-39.26 85.05-38.89L85.05-38.89 83.95-34.25 83.49-34.01Q82.78-34.4 81.94-34.63 81.1-34.86 80.2-34.86L80.2-34.86Q78.9-34.86 77.99-34.34 77.07-33.81 76.48-32.86 75.9-31.91 75.63-30.59 75.36-29.27 75.36-27.69L75.36-27.69 75.36-25.88 83.71-25.88 82.59-21.14 75.36-21.14 75.36 0 68.16 0ZM91.33-7.84L91.33-21.14 86.13-21.14 86.61-24.34Q87.91-24.73 88.85-25.12 89.79-25.51 90.48-25.99 91.18-26.46 91.7-27.04 92.23-27.61 92.69-28.37 93.16-29.13 93.62-30.1 94.08-31.08 94.67-32.35L94.67-32.35 98.19-32.35 98.19-25.88 107.41-25.88 106.29-21.14 98.53-21.14 98.53-8.96Q98.53-6.57 99.81-5.59 101.09-4.61 103.41-4.61L103.41-4.61Q104.41-4.61 105.42-4.79 106.44-4.96 107.37-5.32L107.37-5.32 107.37-2.03Q105.58-0.76 103.5-0.13 101.41 0.49 99.28 0.49L99.28 0.49Q97.26 0.49 95.76-0.09 94.26-0.66 93.27-1.73 92.28-2.81 91.8-4.35 91.33-5.88 91.33-7.84L91.33-7.84ZM110.98-25.88L118.74-25.88 122.28-9.91 123.09-5.25 123.55-5.25 124.43-9.89 128.41-25.1 136.32-25.1 140.27-9.91 141.2-5.22 141.69-5.22 142.47-9.89 146.06-25.88 152.33-25.88 144.86 0 136.81 0 133.05-13.84 132.02-19.21 131.53-19.21 130.43-13.84 126.48 0 118.35 0 110.98-25.88ZM171.15-3.78L171.15-3.78Q170.47-3.2 169.56-2.45 168.64-1.71 167.54-1.06 166.44-0.42 165.17 0.04 163.9 0.49 162.51 0.49L162.51 0.49Q160.97 0.49 159.72-0.1 158.46-0.68 157.58-1.67 156.7-2.66 156.23-3.98 155.75-5.3 155.75-6.74L155.75-6.74Q155.75-8.47 156.51-10.07 157.26-11.67 158.91-12.89 160.56-14.11 163.2-14.83 165.83-15.55 169.59-15.55L169.59-15.55 170.96-15.55 170.96-17.31Q170.96-19.38 169.65-20.51 168.35-21.63 166.2-21.63L166.2-21.63Q165.32-21.63 164.32-21.42 163.32-21.22 162.33-20.84 161.34-20.46 160.4-19.96 159.46-19.46 158.68-18.87L158.68-18.87 158.24-19.12 156.95-23.73Q160-25.22 162.67-25.79 165.34-26.37 167.81-26.37L167.81-26.37Q170.1-26.37 172.02-25.92 173.94-25.46 175.29-24.5 176.65-23.54 177.4-22 178.16-20.46 178.16-18.29L178.16-18.29 178.16-7.1Q178.16-6.69 178.22-6.25 178.28-5.81 178.48-5.44 178.67-5.08 179.02-4.85 179.36-4.61 179.92-4.61L179.92-4.61Q180.26-4.61 180.68-4.69 181.09-4.76 181.55-4.96L181.55-4.96 181.55-1.68Q180.09-0.66 178.64-0.09 177.18 0.49 175.82 0.49L175.82 0.49Q174.84 0.49 174.11 0.16 173.38-0.17 172.81-0.73 172.25-1.29 171.85-2.08 171.45-2.86 171.15-3.78ZM170.96-6.96L170.96-12.62 169.71-12.62Q167.47-12.62 166.06-12.3 164.66-11.99 163.88-11.41 163.1-10.84 162.8-10.06 162.51-9.28 162.51-8.37L162.51-8.37Q162.51-7.42 162.78-6.71 163.05-6.01 163.53-5.54 164-5.08 164.64-4.85 165.27-4.61 166-4.61L166-4.61Q167.05-4.61 168.26-5.1 169.47-5.59 170.96-6.96L170.96-6.96ZM186.44 0L186.44-25.88 192.42-25.88 193.34-18.24Q193.71-18.92 194.09-19.62 194.47-20.31 194.82-20.94 195.18-21.56 195.47-22.05 195.76-22.53 195.96-22.8L195.96-22.8Q196.47-23.56 197.07-24.22 197.67-24.88 198.4-25.35 199.13-25.83 200.01-26.1 200.89-26.37 201.94-26.37L201.94-26.37Q202.65-26.37 203.43-26.18 204.21-26 204.82-25.61L204.82-25.61 204.04-19.09Q203.57-19.21 202.84-19.25 202.11-19.29 201.6-19.29L201.6-19.29Q200.2-19.29 199.03-18.93 197.86-18.58 196.88-17.96 195.91-17.33 195.1-16.48 194.3-15.63 193.64-14.65L193.64-14.65 193.64 0 186.44 0ZM231.09-5.83L231.09-2.54Q229.89-1.68 228.57-1.11 227.25-0.54 225.91-0.18 224.57 0.17 223.25 0.33 221.93 0.49 220.73 0.49L220.73 0.49Q217.8 0.49 215.39-0.34 212.97-1.17 211.24-2.78 209.5-4.39 208.55-6.73 207.6-9.06 207.6-12.06L207.6-12.06Q207.6-15.38 208.73-18.03 209.87-20.68 211.77-22.53 213.68-24.39 216.18-25.38 218.68-26.37 221.42-26.37L221.42-26.37Q223.74-26.37 225.71-25.63 227.69-24.9 229.13-23.45 230.57-22 231.38-19.85 232.18-17.7 232.18-14.87L232.18-14.87Q232.18-14.04 232.11-13.27 232.04-12.5 231.92-11.87L231.92-11.87 215.02-11.87Q215.02-10.03 215.67-8.67 216.32-7.3 217.5-6.4 218.68-5.49 220.36-5.05 222.03-4.61 224.05-4.61L224.05-4.61Q224.71-4.61 225.54-4.66 226.37-4.71 227.3-4.85 228.23-4.98 229.19-5.22 230.16-5.47 231.09-5.83L231.09-5.83ZM215.02-14.82L225.59-14.82Q225.59-16.53 225.2-17.81 224.81-19.09 224.13-19.95 223.44-20.8 222.52-21.22 221.59-21.63 220.51-21.63L220.51-21.63Q219.32-21.63 218.32-21.14 217.32-20.65 216.58-19.75 215.85-18.85 215.44-17.6 215.02-16.36 215.02-14.82L215.02-14.82ZM271.58 0L249.64 0 249.64-35.77 272.19-35.77 271.32-30.96 256.98-30.96 256.98-20.83 269.56-20.83 268.75-16.26 256.98-16.26 256.98-4.81 272.46-4.81 271.58 0ZM279.39 0L279.39-25.88 285.38-25.88 286.3-21.56Q287.13-22.31 288.2-23.16 289.26-24 290.49-24.71 291.72-25.42 293.1-25.89 294.48-26.37 296-26.37L296-26.37Q297.78-26.37 299.25-25.71 300.73-25.05 301.77-23.86 302.81-22.68 303.38-21.01 303.95-19.34 303.95-17.33L303.95-17.33 303.95 0 296.75 0 296.75-16.38Q296.75-17.58 296.41-18.49 296.07-19.41 295.48-20.03 294.9-20.65 294.1-20.96 293.31-21.26 292.38-21.26L292.38-21.26Q290.82-21.26 289.4-20.46 287.99-19.65 286.6-18.41L286.6-18.41 286.6 0 279.39 0ZM324.85 2.1L319.09 2.1Q318.6 2.39 318.09 2.76 317.58 3.13 317.15 3.56 316.72 4 316.44 4.52 316.16 5.03 316.16 5.62L316.16 5.62Q316.16 6.98 317.72 7.9 319.28 8.81 322.24 8.81L322.24 8.81Q323.97 8.81 325.3 8.48 326.63 8.15 327.54 7.59 328.44 7.03 328.9 6.32 329.37 5.62 329.37 4.83L329.37 4.83Q329.37 4.17 329.04 3.66 328.71 3.15 328.11 2.81 327.51 2.47 326.68 2.28 325.85 2.1 324.85 2.1L324.85 2.1ZM315.21 1.59L315.21 1.59Q313.33 0.95 312.25-0.06 311.18-1.07 311.18-2.37L311.18-2.37Q311.18-3.2 311.63-3.94 312.08-4.69 312.83-5.33 313.57-5.98 314.51-6.57 315.45-7.15 316.4-7.71L316.4-7.71Q314.74-8.37 313.61-9.3 312.47-10.23 311.76-11.33 311.06-12.43 310.75-13.64 310.45-14.84 310.45-16.04L310.45-16.04Q310.45-18.36 311.46-20.26 312.47-22.17 314.17-23.52 315.87-24.88 318.1-25.62 320.33-26.37 322.78-26.37L322.78-26.37Q324.61-26.37 326.34-25.95 328.07-25.54 329.29-24.78L329.29-24.78Q330.08-25.22 331.27-25.55 332.47-25.88 334.13-25.88L334.13-25.88 338.06-25.88 336.94-21.17 332.17-21.17Q332.32-20.97 332.55-20.57 332.79-20.17 333-19.62 333.22-19.07 333.38-18.37 333.54-17.68 333.54-16.87L333.54-16.87Q333.54-14.77 332.54-12.99 331.54-11.21 329.89-9.89 328.24-8.57 326.08-7.82 323.92-7.08 321.63-7.08L321.63-7.08Q320.9-7.08 320.07-7.15L320.07-7.15Q319.72-6.96 319.35-6.7 318.97-6.45 318.64-6.12 318.31-5.79 318.1-5.42 317.89-5.05 317.89-4.64L317.89-4.64Q317.89-3.93 318.54-3.48 319.19-3.03 320.33-3.03L320.33-3.03 326.63-3.03Q328.39-3.03 330.06-2.64 331.74-2.25 333.05-1.44 334.37-0.63 335.17 0.57 335.96 1.78 335.96 3.39L335.96 3.39Q335.96 5.13 334.97 6.93 333.98 8.74 332.04 10.22 330.1 11.69 327.21 12.63 324.31 13.57 320.5 13.57L320.5 13.57Q318.16 13.57 316.13 13.18 314.11 12.79 312.62 12.06 311.13 11.33 310.29 10.29 309.45 9.25 309.45 7.93L309.45 7.93Q309.45 6.81 310.03 5.86 310.62 4.91 311.48 4.13 312.35 3.34 313.35 2.71 314.35 2.08 315.21 1.59ZM316.94-16.85L316.94-16.85Q316.94-15.67 317.34-14.67 317.75-13.67 318.44-12.96 319.14-12.26 320.1-11.85 321.07-11.45 322.16-11.45L322.16-11.45Q323.21-11.45 324.13-11.82 325.05-12.18 325.73-12.85 326.41-13.53 326.82-14.49 327.22-15.45 327.22-16.63L327.22-16.63Q327.22-17.8 326.82-18.79 326.41-19.78 325.72-20.5 325.02-21.22 324.07-21.61 323.12-22 322.02-22L322.02-22Q320.97-22 320.05-21.63 319.14-21.26 318.44-20.59 317.75-19.92 317.34-18.97 316.94-18.02 316.94-16.85ZM342.26 0L342.26-25.88 349.46-25.88 349.46 0 342.26 0ZM345.8-30.47L345.8-30.47Q344.87-30.47 344.11-30.76 343.35-31.05 342.8-31.56 342.26-32.06 341.95-32.74 341.64-33.42 341.64-34.2L341.64-34.2Q341.64-35.01 341.97-35.73 342.3-36.45 342.89-36.98 343.48-37.5 344.27-37.81 345.06-38.11 345.99-38.11L345.99-38.11Q346.92-38.11 347.68-37.82 348.43-37.52 348.98-37.01 349.53-36.5 349.84-35.8 350.14-35.11 350.14-34.33L350.14-34.33Q350.14-33.5 349.81-32.79 349.48-32.08 348.9-31.57 348.31-31.05 347.52-30.76 346.72-30.47 345.8-30.47ZM357.22 0L357.22-25.88 363.2-25.88 364.13-21.56Q364.96-22.31 366.02-23.16 367.08-24 368.31-24.71 369.55-25.42 370.93-25.89 372.31-26.37 373.82-26.37L373.82-26.37Q375.6-26.37 377.08-25.71 378.56-25.05 379.59-23.86 380.63-22.68 381.21-21.01 381.78-19.34 381.78-17.33L381.78-17.33 381.78 0 374.58 0 374.58-16.38Q374.58-17.58 374.24-18.49 373.89-19.41 373.31-20.03 372.72-20.65 371.93-20.96 371.13-21.26 370.21-21.26L370.21-21.26Q368.64-21.26 367.23-20.46 365.81-19.65 364.42-18.41L364.42-18.41 364.42 0 357.22 0ZM411.44-5.83L411.44-2.54Q410.24-1.68 408.92-1.11 407.61-0.54 406.26-0.18 404.92 0.17 403.6 0.33 402.28 0.49 401.09 0.49L401.09 0.49Q398.16 0.49 395.74-0.34 393.32-1.17 391.59-2.78 389.86-4.39 388.91-6.73 387.95-9.06 387.95-12.06L387.95-12.06Q387.95-15.38 389.09-18.03 390.22-20.68 392.13-22.53 394.03-24.39 396.53-25.38 399.04-26.37 401.77-26.37L401.77-26.37Q404.09-26.37 406.07-25.63 408.05-24.9 409.49-23.45 410.93-22 411.73-19.85 412.54-17.7 412.54-14.87L412.54-14.87Q412.54-14.04 412.47-13.27 412.39-12.5 412.27-11.87L412.27-11.87 395.38-11.87Q395.38-10.03 396.02-8.67 396.67-7.3 397.85-6.4 399.04-5.49 400.71-5.05 402.38-4.61 404.41-4.61L404.41-4.61Q405.07-4.61 405.9-4.66 406.73-4.71 407.66-4.85 408.58-4.98 409.55-5.22 410.51-5.47 411.44-5.83L411.44-5.83ZM395.38-14.82L405.95-14.82Q405.95-16.53 405.56-17.81 405.17-19.09 404.48-19.95 403.8-20.8 402.87-21.22 401.94-21.63 400.87-21.63L400.87-21.63Q399.67-21.63 398.67-21.14 397.67-20.65 396.94-19.75 396.21-18.85 395.79-17.6 395.38-16.36 395.38-14.82L395.38-14.82ZM440.78-5.83L440.78-2.54Q439.59-1.68 438.27-1.11 436.95-0.54 435.61-0.18 434.26 0.17 432.95 0.33 431.63 0.49 430.43 0.49L430.43 0.49Q427.5 0.49 425.08-0.34 422.67-1.17 420.93-2.78 419.2-4.39 418.25-6.73 417.3-9.06 417.3-12.06L417.3-12.06Q417.3-15.38 418.43-18.03 419.57-20.68 421.47-22.53 423.38-24.39 425.88-25.38 428.38-26.37 431.11-26.37L431.11-26.37Q433.43-26.37 435.41-25.63 437.39-24.9 438.83-23.45 440.27-22 441.08-19.85 441.88-17.7 441.88-14.87L441.88-14.87Q441.88-14.04 441.81-13.27 441.73-12.5 441.61-11.87L441.61-11.87 424.72-11.87Q424.72-10.03 425.37-8.67 426.01-7.3 427.2-6.4 428.38-5.49 430.05-5.05 431.73-4.61 433.75-4.61L433.75-4.61Q434.41-4.61 435.24-4.66 436.07-4.71 437-4.85 437.93-4.98 438.89-5.22 439.86-5.47 440.78-5.83L440.78-5.83ZM424.72-14.82L435.29-14.82Q435.29-16.53 434.9-17.81 434.51-19.09 433.82-19.95 433.14-20.8 432.21-21.22 431.29-21.63 430.21-21.63L430.21-21.63Q429.02-21.63 428.01-21.14 427.01-20.65 426.28-19.75 425.55-18.85 425.13-17.6 424.72-16.36 424.72-14.82L424.72-14.82ZM448.18 0L448.18-25.88 454.16-25.88 455.09-18.24Q455.45-18.92 455.83-19.62 456.21-20.31 456.56-20.94 456.92-21.56 457.21-22.05 457.5-22.53 457.7-22.8L457.7-22.8Q458.21-23.56 458.81-24.22 459.41-24.88 460.14-25.35 460.87-25.83 461.75-26.1 462.63-26.37 463.68-26.37L463.68-26.37Q464.39-26.37 465.17-26.18 465.95-26 466.56-25.61L466.56-25.61 465.78-19.09Q465.32-19.21 464.58-19.25 463.85-19.29 463.34-19.29L463.34-19.29Q461.95-19.29 460.78-18.93 459.6-18.58 458.63-17.96 457.65-17.33 456.84-16.48 456.04-15.63 455.38-14.65L455.38-14.65 455.38 0 448.18 0Z" opacity="1" transform="matrix(1,0,0,1,0,0)" fill="#ffffff" class="undefined-text-1" data-fill-palette-color="quaternary" id="text-1"></path></svg></g></svg></g></svg></g></svg></g><g transform="matrix(1,0,0,1,40.713262274387006,0)"><svg viewBox="0 0 131.7319166783831 84.38309727645131" height="84.38309727645131" width="131.7319166783831"><g><svg xmlns="http://www.w3.org/2000/svg" xmlns:xlink="http://www.w3.org/1999/xlink" version="1.1" x="0" y="0" viewBox="111.69998931884766 20.884868621826172 92.91011810302734 59.515140533447266" enable-background="new 109 0 100 100" xml:space="preserve" height="84.38309727645131" width="131.7319166783831" class="icon-icon-0" data-fill-palette-color="quaternary" id="icon-0"><g fill="#ffffff" data-fill-palette-color="quaternary"><path d="M138.2 33.6c3.9-1.7 2.9-4.2 4.6-5.1 1.1-0.6 1.9 0.3 2.6 0.5-0.1 0.4-0.1 0.8-0.2 1.3-0.3 5.5 3.9 10.2 9.4 10.5 5.5 0.3 10.2-3.9 10.5-9.4 0.3-5.5-3.9-10.2-9.4-10.5-3.7-0.2-7 1.6-8.9 4.4-0.5-1-1.5-2.5-3.1-3-2.8-0.9-6 0.4-7.7 2.6-1.7 2.2-1.7 6.6-6.4 7.6C127.6 33 134.7 35.2 138.2 33.6z" fill="#ffffff" data-fill-palette-color="quaternary"></path><path d="M176.9 67.4c0-3-2.3-4.4-5.2-4.4h-15.9L149 44.7l0 0c-1-3.2-4-5.6-7.6-5.6-1.3 0-2.5 0.3-3.6 0.9l0 0c-14.5 7.3-22.9 20.7-26.1 40.4l19 0c0.5-8.3 2-18 8.8-23.8l7.8 11.7 0 0c0.9 1.7 2.7 3 4.7 3h19.6C174.7 71.2 176.9 70.4 176.9 67.4z" fill="#ffffff" data-fill-palette-color="quaternary"></path></g><path d="M181.5 76.3c-0.4-0.8-2.3-4-6.2-4-4.4 0-6.2 4.1-6.3 4.2-0.1 0.3-0.1 0.7 0.1 0.9 0.2 0.3 0.5 0.5 0.8 0.5h10.7c0 0 0 0 0 0 0.6 0 1-0.4 1-1C181.7 76.7 181.6 76.4 181.5 76.3z" fill="#ffffff" data-fill-palette-color="quaternary"></path><path d="M202.5 28.5c-1.8-0.8-3.8 0.1-4.6 1.9l-15.1 35.4c-0.8 1.8 0.1 3.8 1.9 4.6 0.4 0.2 0.9 0.3 1.4 0.3 1.4 0 2.7-0.8 3.2-2.1l2.7-6.4 5.1 10.6H190c-1.4 0-2.5 1.1-2.5 2.5s1.1 2.5 2.5 2.5h11.1c0.9 0 1.7-0.4 2.1-1.2 0.5-0.7 0.5-1.6 0.1-2.4L194.6 56l9.7-22.9C205.1 31.3 204.3 29.3 202.5 28.5z" fill="#ffffff" data-fill-palette-color="quaternary"></path></svg></g></svg></g><g></g></svg></g></svg></g></svg></g></svg></g><defs></defs></svg><rect width="333.90454557049503" height="333.90454557049503" fill="none" stroke="none" visibility="hidden"></rect></g></svg></g></svg>